<?xml version="1.0" standalone="no"?>
<!DOCTYPE svg PUBLIC "-//W3C//DTD SVG 20010904//EN"
 "http://www.w3.org/TR/2001/REC-SVG-20010904/DTD/svg10.dtd">
<svg version="1.0" xmlns="http://www.w3.org/2000/svg"
 width="260.000000pt" height="260.000000pt" viewBox="0 0 260.000000 260.000000"
 preserveAspectRatio="xMidYMid meet">
<metadata>
Created by potrace 1.11, written by Peter Selinger 2001-2013
</metadata>
<g transform="translate(0.000000,260.000000) scale(0.100000,-0.100000)"
fill="#000000" stroke="none">
<path d="M0 1300 l0 -1300 1300 0 1300 0 0 1300 0 1300 -1300 0 -1300 0 0
-1300z m1020 832 c0 -4 -18 -100 -40 -212 -22 -113 -40 -206 -40 -207 0 -2 47
-3 104 -3 l104 0 32 168 c17 92 36 188 42 215 l10 47 114 0 c114 0 114 0 109
-22 -11 -48 -75 -384 -75 -395 0 -10 32 -13 125 -13 l125 0 0 -110 0 -110
-148 0 -148 0 -25 -130 -26 -130 139 0 138 0 0 -110 0 -110 -160 0 c-88 0
-160 -2 -160 -4 0 -5 -56 -301 -71 -373 l-10 -53 -115 0 c-81 0 -114 3 -114
12 0 11 63 340 75 396 5 22 4 22 -99 22 l-104 0 -37 -192 c-20 -106 -39 -203
-42 -216 -5 -21 -9 -22 -119 -22 -114 0 -114 0 -109 22 7 31 75 394 75 402 0
3 -58 6 -130 6 l-130 0 0 110 0 110 153 0 153 0 22 113 c12 62 22 121 22 130
0 15 -15 17 -135 17 l-135 0 0 110 0 110 159 0 158 0 32 168 c18 92 37 188 42
215 l11 47 114 0 c63 0 114 -3 114 -8z m1157 -59 c-4 -38 -16 -274 -29 -525
l-22 -458 -127 0 -127 0 -6 83 c-9 122 -46 855 -46 915 l0 52 181 0 182 0 -6
-67z m-75 -1190 c71 -40 98 -155 57 -239 -30 -64 -77 -89 -164 -89 -88 0 -131
22 -162 85 -37 73 -22 185 30 229 53 43 176 51 239 14z"/>
<path d="M895 1478 c-7 -22 -45 -220 -45 -235 0 -11 20 -13 102 -11 l102 3 17
85 c10 47 20 104 24 128 l6 42 -101 0 c-72 0 -102 -4 -105 -12z"/>
</g>
</svg>
